<svg width="19" height="19" viewBox="0 0 19 19" fill="none" xmlns="http://www.w3.org/2000/svg">
<g clip-path="url(#clip0_32433_6)">
<path d="M10.7437 3.23073C10.7677 3.23674 10.7917 3.24476 10.8178 3.25076C11.0461 3.31486 11.2624 3.40699 11.4848 3.48912C11.5589 3.53118 11.633 3.56923 11.7131 3.59928C11.7752 3.63533 11.8393 3.66938 11.9014 3.70543C11.9194 3.72747 11.9454 3.73748 11.9715 3.74349C12.1718 3.87168 12.3701 4.00588 12.5563 4.15209C12.6485 4.23221 12.7426 4.31233 12.8348 4.39445C12.8408 4.40046 12.8448 4.40446 12.8508 4.41047C12.9349 4.4946 13.019 4.58072 13.1031 4.66485C13.3335 4.94126 13.5498 5.22968 13.7321 5.54214C13.8122 5.70438 13.8923 5.86862 13.9724 6.03086C14.0145 6.13902 14.0545 6.24718 14.0966 6.35534C14.1066 6.41743 14.1247 6.47752 14.1527 6.5356C14.1507 6.54963 14.1467 6.56565 14.1647 6.57366C14.1667 6.58568 14.1687 6.59569 14.1727 6.60771C14.1707 6.62373 14.1747 6.63375 14.1867 6.64376C14.1887 6.65578 14.1907 6.6678 14.1907 6.67982C14.1968 6.70385 14.2028 6.72789 14.2088 6.74992C14.2168 6.78798 14.2168 6.82603 14.2408 6.86008C14.2588 6.95022 14.2749 7.04035 14.2929 7.13048C14.2949 7.14851 14.2969 7.16653 14.2969 7.18456C14.2969 7.2106 14.2969 7.23463 14.3109 7.25667C14.3129 7.27469 14.3149 7.29272 14.3149 7.31075C14.327 7.42492 14.337 7.53908 14.349 7.65325C14.349 7.67128 14.349 7.6893 14.349 7.70733C14.355 7.8876 14.343 8.06786 14.331 8.24813C14.329 8.26615 14.329 8.28418 14.327 8.30221C14.3129 8.32424 14.3109 8.35028 14.3129 8.37431C14.3109 8.39234 14.3109 8.41037 14.3089 8.42839C14.2869 8.53054 14.2629 8.6327 14.2408 8.73485C14.2168 8.76689 14.2168 8.80695 14.2068 8.84301C14.2008 8.86704 14.1948 8.89108 14.1867 8.91511C14.1847 8.92713 14.1827 8.93915 14.1807 8.94916C14.1607 8.98321 14.1487 9.01927 14.1447 9.05732C14.1186 9.1094 14.1046 9.16348 14.0946 9.21956C14.0525 9.33373 14.0125 9.4479 13.9704 9.56206C13.8983 9.73632 13.8242 9.91058 13.7521 10.0848C13.666 10.2651 13.5798 10.4454 13.4937 10.6256C13.4517 10.6937 13.4136 10.7638 13.3856 10.8399C13.3755 10.858 13.3655 10.878 13.3555 10.896C13.3095 10.9641 13.2714 11.0362 13.2413 11.1123C13.1292 11.3167 13.017 11.521 12.9029 11.7253C12.7927 11.8955 12.6885 12.0678 12.5944 12.248C12.5724 12.2741 12.5483 12.3001 12.5403 12.3362C12.4983 12.3782 12.4722 12.4323 12.4462 12.4864C12.326 12.6787 12.2058 12.8689 12.0856 13.0612C12.0556 13.0933 12.0316 13.1313 12.0135 13.1714C11.9815 13.2215 11.9474 13.2695 11.9154 13.3196C11.9014 13.3316 11.8894 13.3436 11.8894 13.3637C11.8693 13.3757 11.8613 13.3957 11.8533 13.4177C11.8353 13.4318 11.8233 13.4498 11.8173 13.4718C11.7992 13.4858 11.7872 13.5039 11.7812 13.5259C11.7492 13.556 11.7251 13.594 11.7071 13.6341C11.659 13.6901 11.619 13.7502 11.5849 13.8163C11.3906 14.0967 11.1983 14.3772 11.0041 14.6576C10.8058 14.934 10.6055 15.2124 10.4072 15.4888C10.3972 15.5008 10.3851 15.5128 10.3751 15.5249C10.291 15.597 10.2069 15.6691 10.1228 15.7432C10.0987 15.7492 10.0787 15.7592 10.0647 15.7792C10.0246 15.7973 9.98455 15.8173 9.94449 15.8353C9.80428 15.8834 9.66007 15.9094 9.51185 15.9254C9.48782 15.9254 9.46378 15.9234 9.43975 15.9234C9.30355 15.9074 9.17135 15.8794 9.04316 15.8353C8.7948 15.7171 8.60051 15.5409 8.4543 15.3085C8.43427 15.2765 8.40622 15.2484 8.38219 15.2184C8.32611 15.1403 8.27002 15.0622 8.21594 14.9861C8.20593 14.966 8.19992 14.944 8.17789 14.932C7.97359 14.6416 7.77129 14.3511 7.56699 14.0607C7.54095 14.0026 7.50289 13.9525 7.45883 13.9045C7.45282 13.8804 7.4428 13.8624 7.42278 13.8504C7.31061 13.6641 7.18843 13.4838 7.06425 13.3056C6.88999 13.0312 6.71573 12.7568 6.53947 12.4804C6.43732 12.3121 6.33517 12.1439 6.23502 11.9776C6.18896 11.8815 6.13688 11.7893 6.07279 11.7032C5.97664 11.5009 5.85647 11.3106 5.75031 11.1123C5.66619 10.9501 5.58206 10.7879 5.49794 10.6256C5.44586 10.5175 5.39579 10.4093 5.34371 10.3012C5.32168 10.2571 5.29965 10.213 5.27761 10.169C5.25959 10.1129 5.23956 10.0588 5.20551 10.0087C5.10336 9.74433 4.9992 9.48195 4.89705 9.21756C4.88103 9.14145 4.861 9.06734 4.82695 8.99723C4.77888 8.80695 4.73081 8.61467 4.68274 8.42439C4.68073 8.40636 4.68073 8.38833 4.67873 8.37031C4.67873 8.34427 4.67873 8.32023 4.66471 8.2982C4.66271 8.28018 4.66271 8.26215 4.6607 8.24412C4.65269 8.13396 4.64668 8.0238 4.63867 7.91364C4.63867 7.90562 4.63867 7.89561 4.63867 7.8876C4.63867 7.86957 4.63867 7.85154 4.63867 7.83151C4.64668 7.77143 4.65269 7.70933 4.64468 7.64925C4.6567 7.53508 4.66671 7.42091 4.67873 7.30674C4.68073 7.28271 4.68274 7.25867 4.68274 7.23464C4.69676 7.21861 4.69876 7.20058 4.69676 7.18056C4.69876 7.16253 4.69876 7.1445 4.70076 7.12648C4.74683 6.92818 4.7949 6.72989 4.84097 6.5316C4.861 6.51157 4.863 6.48553 4.861 6.45949C4.94312 6.22915 5.03325 6.00282 5.1334 5.78049C5.21752 5.63027 5.30165 5.48005 5.38577 5.32983C5.4038 5.3138 5.41982 5.29778 5.42383 5.27174C5.51997 5.14355 5.61211 5.01136 5.71025 4.88517C5.98466 4.53466 6.31114 4.24022 6.66566 3.97383C6.67768 3.96582 6.68769 3.95981 6.69971 3.9518C6.72374 3.93377 6.74778 3.91775 6.77182 3.89972C6.82389 3.86567 6.87797 3.82962 6.93005 3.79557C7.09229 3.70744 7.25453 3.61931 7.41677 3.53118C7.66513 3.42302 7.9175 3.32487 8.17588 3.24676C8.44628 3.18266 8.71668 3.12057 8.99309 3.09654C9.25548 3.0725 9.51786 3.06249 9.78025 3.08051C10.0907 3.10054 10.3952 3.15663 10.6996 3.21671C10.7036 3.22072 10.7076 3.22072 10.7136 3.21671C10.7296 3.22473 10.7377 3.22673 10.7437 3.23073ZM10.5674 9.52801C10.6115 9.516 10.6475 9.48996 10.6756 9.45591C10.7577 9.40784 10.8298 9.34374 10.8939 9.27364C10.9159 9.26162 10.9319 9.2456 10.944 9.22357C11.0181 9.15947 11.0762 9.08536 11.1282 9.00324C11.1322 8.99723 11.1362 8.99122 11.1403 8.98521C11.1603 8.97119 11.1723 8.95317 11.1783 8.93113V8.93314C11.2484 8.84701 11.2965 8.74686 11.3385 8.64271C11.3486 8.62869 11.3626 8.61467 11.3606 8.59464C11.3766 8.58462 11.3786 8.5706 11.3766 8.55258C11.3886 8.53655 11.4006 8.52053 11.3966 8.4985C11.4447 8.40236 11.4687 8.2982 11.4828 8.19205C11.4848 8.15599 11.4868 8.11994 11.4868 8.08389C11.5068 8.07788 11.5028 8.06185 11.5008 8.04783C11.5028 8.03582 11.5028 8.0238 11.5048 8.01178C11.5208 7.85956 11.5408 7.70733 11.4868 7.55911C11.4848 7.54109 11.4828 7.52306 11.4828 7.50503C11.4868 7.49101 11.4788 7.48701 11.4687 7.485C11.4687 7.45095 11.4667 7.4149 11.4667 7.38085C11.4487 7.26067 11.4066 7.14851 11.3566 7.04035C11.2424 6.74792 11.0561 6.50556 10.8218 6.30126C10.7236 6.21513 10.6255 6.127 10.4973 6.08494C10.4933 6.07493 10.4893 6.06691 10.4773 6.07092C10.4713 6.06892 10.4673 6.06691 10.4613 6.06691C10.4532 6.04688 10.4332 6.03887 10.4152 6.02886C10.2309 5.93272 10.0326 5.87463 9.82832 5.83657C9.79828 5.83457 9.76823 5.83257 9.73819 5.83057C9.71015 5.81054 9.6781 5.81655 9.64805 5.81655C9.63003 5.81655 9.612 5.81655 9.59397 5.81655C9.48582 5.81655 9.37565 5.79852 9.2695 5.83057C9.19539 5.83057 9.12328 5.83657 9.05318 5.86862C8.85288 5.90668 8.66661 5.97678 8.49435 6.08694C8.22796 6.23516 8.00764 6.43546 7.84339 6.69384C7.82337 6.70786 7.80934 6.72789 7.80534 6.75192L7.80734 6.74992C7.67515 6.9422 7.58702 7.15452 7.54095 7.38486C7.53294 7.40288 7.51892 7.41891 7.52493 7.43894C7.52493 7.45095 7.52493 7.46297 7.52292 7.47499C7.49088 7.52506 7.5049 7.58315 7.50089 7.63723C7.47685 7.76341 7.47685 7.8916 7.50089 8.01779C7.49889 8.07788 7.50089 8.13997 7.52292 8.19605C7.55497 8.39434 7.61906 8.58062 7.71721 8.75488C7.93753 9.19152 8.27804 9.49797 8.7287 9.68825C8.87892 9.75435 9.03315 9.80242 9.19539 9.81644C9.20741 9.81844 9.21942 9.81844 9.23144 9.82045C9.35162 9.85049 9.47179 9.84048 9.59197 9.83647C9.61 9.83647 9.62803 9.83447 9.64605 9.83447C9.69012 9.83847 9.73218 9.83847 9.77224 9.82045C9.78426 9.81844 9.79627 9.81844 9.80829 9.81644C9.97854 9.79841 10.1428 9.75435 10.295 9.67623C10.3371 9.67223 10.3711 9.65019 10.4052 9.62616C10.4633 9.59812 10.5213 9.57408 10.5674 9.52801Z" fill="#00A3FF"/>
<path d="M9.5 0C4.25427 0 0 4.25427 0 9.5C0 14.7457 4.25427 19 9.5 19C14.7457 19 19 14.7457 19 9.5C19 4.25427 14.7477 0 9.5 0ZM9.5 17.9284C4.84514 17.9284 1.07158 14.1549 1.07158 9.5C1.07158 4.84514 4.84514 1.07158 9.5 1.07158C14.1549 1.07158 17.9284 4.84514 17.9284 9.5C17.9284 14.1549 14.1549 17.9284 9.5 17.9284Z" fill="#00A3FF"/>
</g>
<defs>
<clipPath id="clip0_32433_6">
<rect width="19" height="19" fill="white"/>
</clipPath>
</defs>
</svg>
