<svg width="18" height="19" viewBox="0 0 18 19" fill="none" xmlns="http://www.w3.org/2000/svg">
<path d="M0 9.59852C0.0056872 9.59852 0.0113744 9.59658 0.0151659 9.59852C0.0151659 9.74776 0.0151659 9.897 0.0151659 10.0462H0.00758294H0C0 9.89506 0 9.74582 0 9.59852Z" fill="white"/>
<path d="M13.5836 17.8858C13.1096 17.8819 12.7039 17.7502 12.3115 17.5738C11.5987 17.252 10.9447 16.8237 10.2945 16.3876C9.65749 15.9612 9.03 15.5232 8.41388 15.0638C8.01767 14.7692 7.66696 14.4184 7.31246 14.0734C6.38924 13.1741 5.56839 12.1895 4.90488 11.0692C4.36459 10.1583 3.94943 9.18726 3.58545 8.19104C3.35796 7.565 3.12289 6.94091 2.9409 6.30131C2.7191 5.52216 2.51057 4.7372 2.39303 3.93091C2.25654 2.99477 2.58071 2.24469 3.24801 1.61672C3.81294 1.08372 4.4499 0.655384 5.09635 0.236736C5.13995 0.209602 5.18355 0.182467 5.22526 0.155333C5.5191 -0.0423618 5.82241 -0.0462382 6.13142 0.114631C6.41009 0.259995 6.62621 0.480947 6.82526 0.721282C7.26696 1.2601 7.58734 1.8745 7.89066 2.50053C8.12952 2.99477 8.33805 3.50451 8.54658 4.01232C8.65275 4.27009 8.61294 4.50461 8.45369 4.72363C8.28308 4.95621 8.0518 5.11514 7.80914 5.25275C7.2954 5.54542 6.74185 5.73148 6.17881 5.89235C6.0063 5.94081 5.83189 5.98926 5.65559 6.02415C5.57028 6.04159 5.56649 6.07454 5.58545 6.14819C5.73331 6.76647 5.93805 7.36537 6.1826 7.9507C6.86128 9.56908 7.79587 11.0092 9.03948 12.2321C9.73331 12.9144 10.4992 13.4939 11.3371 13.9784C11.4091 14.0191 11.43 14.0114 11.4584 13.9319C11.7485 13.1702 12.1333 12.4667 12.6945 11.8755C12.9011 11.6584 13.1248 11.4685 13.4016 11.3483C13.576 11.2727 13.7409 11.2766 13.9096 11.3735C14.266 11.5809 14.5826 11.8426 14.8859 12.1217C15.502 12.6857 16.0651 13.3001 16.5049 14.0211C16.7096 14.3564 16.884 14.7072 16.9371 15.1065C16.9561 15.246 16.9542 15.3836 16.9238 15.5212C16.8935 15.6589 16.8309 15.7732 16.721 15.8701C16.2224 16.3023 15.7428 16.7578 15.2215 17.1629C14.8575 17.4459 14.4802 17.7017 14.029 17.8199C13.8698 17.8645 13.7068 17.8819 13.5836 17.8858Z" fill="white"/>
<path d="M0.0146484 10.0438C0.0146484 9.89455 0.0146484 9.74531 0.0146484 9.59607C0.0430845 8.55914 0.226971 7.55322 0.585265 6.58026C0.803274 5.98911 1.07626 5.42704 1.40801 4.89598C1.41939 4.87659 1.43266 4.85915 1.45162 4.83008C1.5047 5.06072 1.55399 5.27974 1.60707 5.49681C1.67342 5.77203 1.74166 6.04726 1.81181 6.32248C1.82887 6.38838 1.82697 6.44458 1.79854 6.50661C1.22981 7.80131 1.0156 9.1561 1.14072 10.5671C1.39095 13.3872 3.14072 15.9204 5.65636 17.1182C6.84119 17.6822 8.08669 17.9303 9.38906 17.8721C9.69427 17.8585 9.99949 17.8237 10.3028 17.7733C10.3388 17.7674 10.3692 17.7674 10.4014 17.7868C10.8355 18.062 11.2791 18.3218 11.7606 18.5485C11.6147 18.6144 11.4744 18.6474 11.3379 18.6842C10.3597 18.9517 9.36441 19.0583 8.35399 18.973C6.02982 18.7811 4.05825 17.8198 2.45446 16.0909C1.29048 14.8369 0.545454 13.3503 0.198535 11.6583C0.0885821 11.1253 0.0336058 10.5865 0.0146484 10.0438Z" fill="white"/>
<path d="M17.3326 13.2727C17.1601 13.0187 16.9933 12.7862 16.8113 12.5633C16.7392 12.4761 16.671 12.3888 16.5952 12.3055C16.5516 12.257 16.544 12.2125 16.5629 12.1485C16.8075 11.3364 16.9174 10.5049 16.9061 9.656C16.8606 6.31652 14.7222 3.28714 11.6378 2.18431C10.7317 1.86064 9.79896 1.70558 8.83972 1.7269C8.76389 1.72884 8.72218 1.70946 8.68616 1.63775C8.53071 1.32376 8.36199 1.01753 8.17242 0.722924C8.1345 0.66284 8.14019 0.645397 8.21412 0.639582C9.54303 0.523291 10.834 0.695789 12.089 1.16095C14.889 2.19982 17.052 4.67488 17.7459 7.62867C18.0037 8.72374 18.0644 9.83044 17.9298 10.9468C17.8331 11.7454 17.6359 12.5129 17.3326 13.2727Z" fill="white"/>
</svg>
