<svg width="270" height="74" viewBox="0 0 270 74" fill="none" xmlns="http://www.w3.org/2000/svg">
<path d="M193.287 42.2666H185.466V38.8396H193.287V42.2666Z" fill="#00A3FF"/>
<path d="M207.275 28.1648H203.044V50.4326H199.223V28.1648H194.993V24.7705H207.275V28.1648Z" fill="#00A3FF"/>
<path d="M222.377 50.4326H218.376L214.145 38.5116C214.145 38.5116 214.145 37.7409 214.145 36.1996H217.916V28.0664H213.079V50.4326H209.242V24.7705H219.425C220.966 24.7705 221.737 25.5576 221.737 27.1317V36.4619C221.737 37.5442 221.371 38.2438 220.638 38.5608C220.245 38.7248 219.414 38.8068 218.146 38.8068L222.377 50.4326Z" fill="#00A3FF"/>
<path d="M237.561 48.0878C237.561 49.651 236.774 50.4326 235.199 50.4326H227.05C225.498 50.4326 224.721 49.651 224.721 48.0878V24.7705H228.558V47.1367H233.724V24.7705H237.561V48.0878Z" fill="#00A3FF"/>
<path d="M253.286 48.0878C253.286 49.651 252.504 50.4326 250.941 50.4326H242.939C241.42 50.4326 240.66 49.651 240.66 48.0878V27.1317C240.66 25.5576 241.42 24.7705 242.939 24.7705H250.941C252.504 24.7705 253.286 25.5576 253.286 27.1317V33.1332H249.465V28.0664H244.497V47.1367H249.465V41.7419H253.286V48.0878Z" fill="#00A3FF"/>
<path d="M269.241 50.4326H265.01L260.14 38.9871V50.4326H256.303V24.7705H260.14V35.6257L264.403 24.7705H268.601V24.9509L263.387 37.1342L269.241 50.4326Z" fill="#00A3FF"/>
<path d="M125.626 48.0883C125.626 49.6516 124.844 50.4332 123.281 50.4332H115.279C113.76 50.4332 113 49.6516 113 48.0883V27.1323C113 25.5582 113.76 24.7711 115.279 24.7711H123.281C124.844 24.7711 125.626 25.5582 125.626 27.1323V33.1338H121.805V28.067H116.837V47.1373H121.805V41.7425H125.626V48.0883Z" fill="white"/>
<path d="M138.728 50.4332H128.643V24.7711H132.48V47.0061H138.728V50.4332Z" fill="white"/>
<path d="M151.649 50.4332H141.007V24.7711H151.551V28.1654H144.844V35.659H150.616V38.9877H144.844V47.0389H151.649V50.4332Z" fill="white"/>
<path d="M167.292 50.4332H163.488L162.717 45.5631H157.913L157.142 50.4332H153.354V50.3676L158.323 24.7383H162.356L167.292 50.4332ZM162.176 42.2672L160.307 30.6906L158.421 42.2672H162.176Z" fill="white"/>
<path d="M182.443 50.4332H179.082L172.933 34.2816C173.097 35.0687 173.179 35.6863 173.179 36.1345V50.4332H169.44V24.7711H172.802L178.951 40.5947C178.787 39.8076 178.705 39.1899 178.705 38.7417V24.7711H182.443V50.4332Z" fill="white"/>
<g clip-path="url(#clip0_32482_237)">
<path d="M35.5811 27.7492C35.5811 30.2268 35.5811 32.8697 35.5811 35.3474C35.5811 36.5036 34.7575 36.5036 34.0986 36.834C28.8273 38.9813 23.3914 41.1286 18.1202 43.2759C17.7907 43.4411 17.2966 43.4411 16.9671 43.6063V43.7715C17.4613 43.7715 17.9555 43.6063 18.4496 43.6063C23.2267 42.4501 28.1684 41.2938 32.9455 39.9724C35.2516 39.3117 35.2516 39.3117 35.2516 41.9545C35.0869 45.0929 35.0869 48.2313 35.0869 51.2045C35.0869 52.3608 34.7575 52.8563 33.4396 52.6911C26.6859 52.1956 19.9322 51.8652 13.1784 51.3697C10.0486 51.2045 8.40138 49.5527 8.07193 46.7447C7.74248 43.6063 9.22501 40.4679 11.6959 39.642C12.849 39.1465 13.5079 36.9992 12.6842 35.8429C11.5312 34.3563 11.037 32.7045 11.2017 30.8876C11.5312 28.2447 13.0137 26.4277 15.9788 25.9322C14.4962 24.1152 14.4962 22.6286 16.4729 21.3072C17.1318 20.9768 16.8024 20.6465 16.6377 20.1509C15.3199 16.8474 15.9788 15.6911 19.7674 15.3608C20.2616 15.3608 20.5911 15.3608 20.5911 14.8652C20.5911 12.7179 21.9089 11.3965 23.8856 11.2313C26.027 11.0661 27.1801 12.5527 27.839 14.3697C27.839 14.3697 27.839 14.5349 28.1684 14.7001C29.1568 13.709 30.3099 12.7179 31.7924 12.3876C34.2633 12.0572 35.9105 13.5438 36.0753 16.0215C36.24 18.8295 35.5811 20.8117 33.1102 22.4634C29.3215 25.1063 25.6976 28.2447 22.0736 31.0527C21.5794 31.3831 20.9205 31.7134 20.5911 33.0349C25.8623 29.8965 30.6393 26.7581 35.5811 23.7849C35.7458 23.7849 35.7458 23.9501 35.9105 23.9501C35.9105 24.4456 35.9105 24.7759 35.9105 25.2715C32.9455 27.2536 29.9804 29.2358 27.1801 31.2179C26.8506 31.3831 26.6859 31.5483 26.3565 31.7134C26.8506 32.0438 27.1801 31.8786 27.5095 31.5483C30.1451 30.392 32.7807 29.0706 35.5811 27.7492ZM19.6027 33.3652C19.438 33.6956 18.7791 33.5304 18.9438 33.8608C19.1085 34.1911 19.6027 34.0259 19.9322 33.6956C20.0969 33.5304 20.4263 33.5304 20.2616 33.2001C19.9322 33.0349 19.7674 33.2001 19.6027 33.3652ZM25.5328 14.8652C24.8739 17.8384 23.2267 19.3251 20.7558 20.4813C23.3914 21.142 24.8739 22.4634 25.5328 24.9411C26.5212 22.6286 28.0037 21.3072 30.6393 20.4813C27.5095 19.6554 26.5212 17.5081 25.5328 14.8652ZM13.6726 32.209C14.9904 32.7045 15.6493 33.3652 16.3082 34.6867C16.9671 33.5304 17.7907 32.7045 19.2733 32.209C17.626 31.7134 16.9671 30.5572 16.3082 29.0706C15.814 30.5572 14.8257 31.3831 13.6726 32.209Z" fill="#00A3FF"/>
<path d="M33.6055 7.92857C37.3942 6.44196 39.7003 4.12946 40.6887 0C42.1712 3.79911 43.6537 6.9375 48.1013 7.76339C44.3126 8.91964 41.8417 10.7366 40.5239 14.5357C39.865 10.5714 37.3942 8.75447 33.6055 7.92857Z" fill="#00A3FF"/>
<path d="M5.27229 42.7811C3.95449 42.6159 3.13086 41.9552 3.13086 40.6338C3.13086 39.3124 3.78976 38.3213 5.27229 38.3213C6.59009 38.3213 7.41372 39.1472 7.41372 40.4686C7.41372 41.79 6.59009 42.6159 5.27229 42.7811Z" fill="#00A3FF"/>
<path d="M1.81198 24.9427C0.658902 24.6123 0 24.1168 0 22.9605C0 21.8043 0.823627 21.1436 1.81198 21.1436C2.96506 21.1436 3.78869 21.9694 3.78869 23.1257C3.78869 24.2819 2.96506 24.7775 1.81198 24.9427Z" fill="#00A3FF"/>
<path d="M8.40249 27.5852C7.24941 27.4201 6.42578 26.9245 6.42578 25.7683C6.42578 24.612 7.08468 23.7861 8.40249 23.7861C9.55557 23.7861 10.2145 24.4468 10.2145 25.6031C10.2145 26.7593 9.55557 27.4201 8.40249 27.5852Z" fill="#00A3FF"/>
<path d="M3.12999 29.567C2.30636 29.4018 1.64746 29.0714 1.64746 28.0804C1.64746 27.2545 2.30636 26.5938 3.12999 26.5938C3.95362 26.5938 4.44779 27.0893 4.44779 27.9152C4.61252 28.9062 3.95362 29.4018 3.12999 29.567Z" fill="#00A3FF"/>
<path d="M13.6723 14.2054C12.8487 14.2054 12.3545 13.7098 12.3545 12.8839C12.3545 12.058 12.8487 11.5625 13.5076 11.5625C14.3312 11.5625 14.8254 12.058 14.8254 12.8839C14.9901 13.7098 14.4959 14.2054 13.6723 14.2054Z" fill="#00A3FF"/>
<path d="M9.22534 13.5439C9.88424 13.7091 10.3784 14.0395 10.3784 14.7002C10.3784 15.3609 9.88424 15.8564 9.22534 15.8564C8.40172 15.8564 8.07227 15.3609 8.07227 14.535C8.07227 13.8743 8.56644 13.5439 9.22534 13.5439Z" fill="#00A3FF"/>
<path d="M14.3311 7.7627C14.99 7.92787 15.3195 8.09305 15.3195 8.75377C15.3195 9.41448 14.99 9.74484 14.3311 9.74484C13.8369 9.74484 13.3428 9.41448 13.3428 8.75377C13.3428 8.09305 13.8369 7.7627 14.3311 7.7627Z" fill="#00A3FF"/>
<path d="M10.7071 9.91113C11.2013 9.91113 11.5307 10.2415 11.5307 10.737C11.5307 11.2326 11.2013 11.5629 10.7071 11.5629C10.0482 11.5629 9.71875 11.2326 9.71875 10.5718C9.71875 10.0763 10.0482 9.91113 10.7071 9.91113Z" fill="#00A3FF"/>
<path d="M52.8759 18.8311C58.806 19.1614 64.7361 19.6569 70.3368 22.1346C80.0556 26.4293 81.7028 33.5319 82.0323 40.965C82.0323 41.956 81.7028 42.2864 80.7145 42.1212C74.6196 41.7909 68.3601 41.4605 62.2652 40.965C58.6412 40.6346 54.8526 40.7998 51.2286 41.2953C48.593 41.6257 48.4283 41.6257 48.2635 38.8177C48.2635 37.6614 48.2635 36.5052 48.0988 35.1837C47.7694 33.0364 48.9224 31.8802 50.8991 31.2194C52.5464 30.7239 54.1937 30.5587 56.0056 30.7239C61.6063 31.0543 67.207 31.3846 72.8076 31.715C74.4549 31.8802 76.1022 31.8802 77.9141 32.0453C76.7611 28.7418 74.6196 26.4293 71.984 24.7775C67.207 21.8043 61.9358 20.648 56.4998 19.8221C55.3467 19.6569 54.1937 19.4918 53.0406 19.3266C53.0406 19.1614 52.8759 18.9962 52.8759 18.8311Z" fill="white"/>
<path d="M76.762 61.4464C76.2678 58.1429 75.7736 54.8393 75.4442 51.3705C75.2794 50.2143 74.7853 49.7188 73.7969 49.2232C69.1846 47.2411 64.5723 45.0938 59.96 42.7812C69.514 45.5893 79.0681 49.058 89.4458 47.0759C88.6222 46.5804 87.9633 46.0848 87.1397 45.5893C86.4808 45.0938 85.8219 44.7634 85.163 44.1027C88.128 44.433 90.7636 45.7545 92.7403 47.9018C95.0465 50.3795 93.7287 53.5179 94.2229 56.6563C95.5407 56.3259 96.8585 55.8304 97.8468 57.317C98.1763 57.9777 98.1763 58.4732 97.6821 58.9688C96.6937 60.125 95.5407 59.7946 94.2229 59.2991C94.0581 59.9598 94.0581 60.4554 93.8934 61.1161C92.7403 59.6295 91.0931 60.2902 89.7753 60.2902C86.4808 60.2902 83.351 60.4554 80.0565 60.4554C79.2328 60.4554 78.4092 60.2902 78.2445 61.4464C77.5856 61.4464 77.2561 61.4464 76.762 61.4464ZM84.8335 54.1786C86.9749 54.1786 89.1164 54.1786 91.4225 54.1786C91.9167 54.1786 92.5756 54.3438 92.5756 53.5179C92.5756 52.692 92.0814 52.692 91.5873 52.692C87.1397 52.692 82.6921 52.692 78.4092 52.692C77.915 52.692 77.2561 52.692 77.2561 53.3527C77.2561 54.1786 77.915 54.0134 78.4092 54.0134C80.3859 54.1786 82.6921 54.1786 84.8335 54.1786ZM84.6688 52.1964C86.8102 52.0313 88.9517 52.0313 91.2578 52.0313C91.752 52.0313 92.4109 52.1964 92.5756 51.5357C92.5756 50.7098 91.9167 50.7098 91.2578 50.7098C86.9749 50.7098 82.5274 50.875 78.2445 50.875C77.7503 50.875 77.0914 50.875 77.2561 51.7009C77.2561 52.3616 77.915 52.1964 78.2445 52.1964C80.3859 52.1964 82.5274 52.1964 84.6688 52.1964ZM92.9051 57.4821C92.9051 57.317 92.9051 57.1518 92.9051 56.9866C87.9633 56.9866 83.0215 56.9866 78.0798 56.9866C78.0798 57.1518 78.0798 57.317 78.0798 57.4821C83.0215 57.4821 87.9633 57.4821 92.9051 57.4821ZM77.7503 49.8839C82.1979 49.8839 86.4808 49.8839 90.9284 49.8839C90.9284 49.7188 90.9284 49.5536 90.9284 49.3884C86.4808 48.5625 82.0332 48.5625 77.7503 49.8839ZM78.2445 58.8036C78.2445 58.9688 78.2445 59.1339 78.2445 59.2991C83.0215 59.2991 87.9633 59.2991 92.7403 59.2991C92.7403 59.1339 92.7403 58.9688 92.7403 58.8036C87.9633 58.8036 83.1863 58.8036 78.2445 58.8036Z" fill="white"/>
<path d="M50.8994 65.08C50.8994 62.6023 51.2289 60.1247 52.5467 57.9773C54.0292 55.4997 56.3354 55.3345 57.6532 57.9773C60.124 62.6023 60.124 67.3925 57.6532 72.0175C56.3354 74.6604 54.0292 74.4952 52.5467 72.0175C51.2289 70.0354 50.8994 67.5577 50.8994 65.08ZM56.3354 64.7497C56.1706 63.7586 56.3354 62.1068 55.0176 62.1068C53.6998 62.1068 53.6997 63.5934 53.6997 64.7497C53.6997 65.7407 53.535 67.3925 55.0176 67.3925C56.3354 67.2273 56.0059 65.7407 56.3354 64.7497Z" fill="white"/>
<path d="M69.5146 71.3578C77.092 70.8623 84.6693 70.2016 92.4114 69.706C95.2118 69.5409 97.6827 66.2373 97.0238 63.4293C96.859 62.4382 96.0354 61.9427 95.2118 61.2819C96.5296 60.6212 97.6827 60.7864 98.5063 61.4471C99.3299 62.1078 98.671 63.0989 98.671 63.7596C98.671 64.4203 98.3416 65.081 98.1768 65.7418C97.0238 70.0364 96.0354 70.8623 91.5878 71.1926C83.0221 71.8534 74.6211 72.6793 66.0554 73.34C62.9256 73.6703 61.9372 72.8444 61.2783 69.5409C62.2667 70.2016 62.9256 71.3578 64.2434 71.523C64.5728 71.523 64.9023 71.3578 65.067 71.3578C66.2201 71.3578 67.5379 71.1926 68.691 71.1926C69.0204 71.3578 69.3499 71.3578 69.5146 71.3578Z" fill="white"/>
<path d="M33.4411 55.5011C35.4178 57.3181 35.9119 61.9431 34.2647 63.9252C33.4411 64.9163 32.6174 64.7511 32.1233 63.76C31.7938 63.0993 31.4644 62.4386 31.1349 61.7779C29.3229 63.5949 28.9935 63.5949 27.8404 61.2824C27.5109 60.4565 27.1815 60.2913 26.6873 60.952C26.0284 61.7779 25.3695 61.2824 25.0401 60.6217C23.887 58.8047 24.2164 55.8315 25.8637 54.1797C27.1815 54.51 27.1815 55.8315 27.6757 56.9877C28.3346 55.8315 28.4993 54.51 30.1466 54.6752C30.476 55.5011 30.9702 56.1618 31.2996 56.9877C31.9585 56.327 32.1233 55.1708 33.4411 55.5011Z" fill="white"/>
<path d="M33.4387 55.5005C32.6151 54.0139 31.2973 54.6747 29.9795 54.6747C28.6617 53.8488 27.1792 54.0139 25.6966 53.8488C25.5319 53.8488 25.5319 53.8488 25.3672 53.6836C25.3672 53.5184 25.3672 53.188 25.3672 53.0229C30.4737 53.3532 35.4154 53.5184 40.5219 53.8488C44.1459 54.0139 44.8048 53.3532 44.8048 49.7193C44.8048 42.947 44.8048 36.1747 45.1342 29.4023C46.1226 31.2193 45.9579 33.0363 46.1226 35.0184C46.7815 41.6256 46.9462 48.2327 46.1226 54.6747C45.9579 55.8309 45.6284 55.9961 44.4753 55.8309C41.3456 55.3354 38.2158 55.005 35.086 54.8398C34.4271 55.005 33.6035 54.3443 33.4387 55.5005Z" fill="white"/>
<path d="M93.4015 63.5938C92.7426 67.3929 91.919 68.0536 88.4597 68.2188C85.8241 68.3839 83.1885 68.5491 80.5529 68.7143C78.7409 68.7143 77.2584 66.567 78.082 64.9152C78.2468 64.4196 78.7409 64.4196 79.2351 64.4196C84.0122 64.0893 88.6245 63.7589 93.4015 63.5938Z" fill="white"/>
<path d="M36.4062 42.2876C36.4062 35.3501 36.9004 28.4126 37.8888 21.4751C38.0535 20.1536 39.0419 19.9885 40.0302 19.8233C43.9836 19.1626 47.1134 20.6492 49.9137 23.292C51.3963 24.6135 52.7141 26.2652 53.0435 28.4126C51.7257 26.926 50.2432 25.6045 48.5959 24.4483C47.1134 23.292 45.4662 22.4661 43.6542 21.9706C41.1833 21.3099 39.536 22.4661 39.2066 24.9438C38.0535 30.7251 37.5593 36.5063 37.2299 42.4527C36.9004 42.2876 36.7357 42.2876 36.4062 42.2876Z" fill="white"/>
<path d="M70.9977 53.0225C68.1973 52.527 65.5617 51.5359 62.5967 51.0404C55.8429 50.0493 53.2073 51.3707 50.407 57.4823C49.5834 59.4645 48.595 59.96 46.6183 59.4645C44.4769 58.8038 42.1707 58.6386 40.0293 58.1431C42.1707 57.8127 44.3122 57.9779 46.4536 58.3082C47.6067 58.4734 48.2656 58.1431 48.7597 57.152C49.5834 55.8306 50.407 54.5091 51.2306 53.1877C53.2073 50.2145 56.0077 49.0582 59.3022 49.3886C63.585 49.5538 67.5384 50.8752 70.9977 53.0225Z" fill="white"/>
<path d="M54.8545 6.11203C57.4901 4.95578 58.9726 3.30399 59.7963 0.661133C60.7846 3.13881 61.773 5.28613 64.738 6.11203C62.4319 6.93792 60.6199 7.92899 59.7963 10.5718C58.9726 7.92899 57.4901 6.60756 54.8545 6.11203Z" fill="white"/>
<path d="M65.2329 71.5223C64.9034 71.5223 64.574 71.6875 64.4092 71.6875C65.2329 70.5313 63.9151 70.3661 63.4209 70.0357C62.4325 68.7143 61.4442 67.558 61.6089 65.9063C61.7736 64.4196 62.4325 63.5938 64.0798 63.5938C66.0565 63.5938 67.8685 63.7589 70.3394 64.2545C69.0216 65.0804 68.0332 64.5848 67.2096 64.75C65.7271 64.9152 64.0798 64.75 63.5856 66.567C63.2562 67.7232 65.5623 69.8705 67.2096 69.8705C68.6921 70.0357 70.1746 70.0357 71.4925 70.0357C71.3277 70.2009 71.163 70.5313 71.163 70.6964C70.6688 70.6964 70.1746 70.6964 69.6805 70.8616C69.1863 70.6964 69.1863 71.0268 69.5157 71.3572C69.351 71.3572 69.0216 71.3572 68.8568 71.3572C68.0332 70.5313 66.0565 70.6964 65.2329 71.5223Z" fill="white"/>
<path d="M78.4105 61.6133C83.6817 61.6133 88.7882 61.6133 94.0594 61.6133C84.3406 62.274 74.6218 63.7606 64.7383 61.6133C68.6917 61.6133 72.6451 61.6133 76.5985 61.6133C77.2574 61.9436 77.7516 61.9436 78.4105 61.6133Z" fill="white"/>
<path d="M51.8889 16.0215C51.5595 14.0393 50.2417 13.3786 48.4297 12.8831C50.2417 12.0572 51.3947 10.9009 52.0537 9.08398C53.042 10.7358 53.7009 12.3876 55.8423 12.8831C54.0304 13.5438 52.8773 14.5349 51.8889 16.0215Z" fill="white"/>
<path d="M38.3818 63.4288C40.5233 63.2636 42.0058 64.0895 43.653 64.4199C45.3003 64.7503 47.1123 65.411 48.7595 65.7413C50.2421 65.9065 50.7362 66.7324 50.5715 68.3842C46.4534 66.7324 42.6647 65.2458 38.3818 63.4288Z" fill="white"/>
<path d="M18.1203 53.5184C18.9439 54.8398 18.9439 56.1612 18.4497 57.4826C18.1203 58.3085 17.6261 58.9692 16.8025 57.813C16.6378 57.6478 16.6378 56.9871 16.3083 57.1523C14.4963 57.813 14.8258 56.4916 14.6611 55.5005C14.4963 53.3532 14.8258 53.0228 17.1319 53.3532C17.2967 53.5183 17.7908 53.5184 18.1203 53.5184Z" fill="white"/>
<path d="M67.8662 60.291C66.7131 60.291 65.7248 59.7955 65.7248 58.6392C65.56 57.3178 66.7131 56.8223 67.8662 56.8223C68.8546 56.8223 69.8429 57.3178 69.8429 58.474C69.8429 59.6303 68.8546 60.1258 67.8662 60.291Z" fill="white"/>
<path d="M71.6554 68.2185C70.9965 68.0533 70.5023 68.2185 70.0082 68.5488C69.514 68.8792 68.8551 68.8792 68.3609 68.3836C68.0315 67.8881 67.8667 67.3926 68.1962 66.897C68.6904 66.2363 69.1845 66.0712 69.8434 66.4015C70.3376 66.7319 70.9965 66.7319 71.4907 66.4015C71.9849 66.2363 72.4791 66.2363 72.9732 66.5667C73.3027 66.897 73.3027 67.2274 73.138 67.7229C72.8085 68.3836 72.3143 68.3836 71.6554 68.2185Z" fill="white"/>
<path d="M72.6437 60.2902C71.8201 60.125 70.667 60.125 70.667 58.9687C70.667 57.8125 71.8201 57.8125 72.6437 57.8125C73.4673 57.8125 74.7851 57.8125 74.6204 59.1339C74.6204 60.125 73.632 60.125 72.6437 60.2902Z" fill="white"/>
<path d="M36.4062 42.2861C36.571 42.2861 36.9004 42.2861 37.0652 42.2861C36.9004 44.1031 36.9004 46.0852 36.7357 47.9022C36.571 47.9022 36.571 47.9022 36.4062 47.9022C36.4062 46.0852 36.4062 44.2683 36.4062 42.2861Z" fill="white"/>
<path d="M52.8767 18.8303C52.8767 18.9955 52.8767 19.1607 52.8767 19.3259C51.0647 19.1607 49.4174 18.9955 47.6055 18.8303C49.4174 18.5 51.2294 18.3348 52.8767 18.8303Z" fill="white"/>
<path d="M20.9209 53.353C20.9209 53.1878 20.9209 53.0226 20.9209 52.8574C22.4034 52.8574 23.886 53.0226 25.2038 53.0226C25.2038 53.1878 25.2038 53.5181 25.2038 53.6833C23.886 53.6833 22.4034 53.5181 20.9209 53.353Z" fill="white"/>
<path d="M71.1631 70.3658C71.3278 70.2006 71.4925 69.8703 71.4925 69.7051C72.4809 69.7051 73.4692 69.7051 74.9518 69.7051C73.3045 70.3658 72.3162 70.531 71.1631 70.3658Z" fill="white"/>
<path d="M63.5847 61.7785C63.5847 61.9436 63.5847 61.9436 63.5847 61.7785C63.42 61.9436 63.2552 61.9436 63.2552 61.7785C63.0905 61.7785 63.0905 61.6133 62.9258 61.6133C63.0905 61.6133 63.0905 61.6133 63.2552 61.6133C63.42 61.7785 63.5847 61.7785 63.5847 61.7785Z" fill="white"/>
<path d="M78.4096 61.6116C77.7507 61.7768 77.2566 61.7768 76.5977 61.6116C76.5977 61.4464 76.7624 61.4464 76.7624 61.2812C77.2566 61.2812 77.586 61.2812 78.0802 61.2812C78.2449 61.4464 78.2449 61.6116 78.4096 61.6116Z" fill="white"/>
</g>
<defs>
<clipPath id="clip0_32482_237">
<rect width="99" height="74" fill="white"/>
</clipPath>
</defs>
</svg>
